solid pyramids
facet normal 0.0 -0.9054589359588678 0.4244338762307209
  outer loop
    vertex 259.66928538144936 351.9142364684995 49.99999999999999
    vertex 236.23178538144938 328.47673646849944 0.0
    vertex 283.10678538144936 328.47673646849944 0.0
  endloop
endfacet
facet normal 0.0 0.0 -1.0
  outer loop
    vertex 283.10678538144936 375.35173646849955 0.0
    vertex 236.23178538144938 328.47673646849944 0.0
    vertex 236.23178538144938 375.35173646849955 0.0
  endloop
endfacet
facet normal 0.0 0.0 -1.0
  outer loop
    vertex 236.23178538144938 328.47673646849944 0.0
    vertex 283.10678538144936 375.35173646849955 0.0
    vertex 283.10678538144936 328.47673646849944 0.0
  endloop
endfacet
facet normal -0.9054589359588685 -2.0177248562630422e-17 0.42443387623071904
  outer loop
    vertex 236.23178538144938 375.35173646849955 0.0
    vertex 236.23178538144938 328.47673646849944 0.0
    vertex 259.66928538144936 351.9142364684995 49.99999999999999
  endloop
endfacet
facet normal 0.0 0.9054589359588687 0.4244338762307192
  outer loop
    vertex 259.66928538144936 351.9142364684995 49.99999999999999
    vertex 283.10678538144936 375.35173646849955 0.0
    vertex 236.23178538144938 375.35173646849955 0.0
  endloop
endfacet
facet normal 0.9054589359588687 2.882464080373439e-18 0.4244338762307192
  outer loop
    vertex 283.10678538144936 375.35173646849955 0.0
    vertex 259.66928538144936 351.9142364684995 49.99999999999999
    vertex 283.10678538144936 328.47673646849944 0.0
  endloop
endfacet
endsolid pyramids
