solid pyramids
facet normal 0.0 -0.9054589359588678 0.4244338762307209
  outer loop
    vertex 259.66928538144936 351.9142364684995 49.99999999999999
    vertex 236.23178538144938 328.47673646849944 0.0
    vertex 283.10678538144936 328.47673646849944 0.0
  endloop
endfacet
facet normal 0.0 0.0 -1.0
  outer loop
    vertex 222.16928538144927 389.4142364684994 0.0
    vertex 203.4192853814493 389.4142364684994 0.0
    vertex 212.7942853814493 398.7892364684994 0.0
  endloop
endfacet
facet normal 0.0 -0.905458935958868 0.4244338762307209
  outer loop
    vertex 212.7942853814493 398.78923646849944 19.999999999999996
    vertex 203.4192853814493 389.4142364684994 0.0
    vertex 222.16928538144927 389.4142364684994 0.0
  endloop
endfacet
facet normal 0.9054589359588686 2.8824640803734397e-18 0.4244338762307192
  outer loop
    vertex 222.16928538144927 408.16423646849944 0.0
    vertex 212.7942853814493 398.78923646849944 19.999999999999996
    vertex 222.16928538144927 389.4142364684994 0.0
  endloop
endfacet
facet normal 0.0 0.0 -1.0
  outer loop
    vertex 222.16928538144927 408.16423646849944 0.0
    vertex 212.7942853814493 398.7892364684994 0.0
    vertex 203.4192853814493 408.16423646849944 0.0
  endloop
endfacet
facet normal -0.7071067811865483 0.7071067811865467 -1.076270903809699e-15
  outer loop
    vertex 212.7942853814493 398.78923646849944 19.999999999999996
    vertex 212.7942853814493 398.7892364684994 0.0
    vertex 203.4192853814493 389.4142364684994 0.0
  endloop
endfacet
facet normal -0.7071067811865483 0.7071067811865467 -1.076270903809699e-15
  outer loop
    vertex 212.7942853814493 398.7892364684994 0.0
    vertex 212.7942853814493 398.78923646849944 19.999999999999996
    vertex 222.16928538144927 408.16423646849944 0.0
  endloop
endfacet
facet normal -0.9054589359588688 -2.017724856263043e-17 0.42443387623071926
  outer loop
    vertex 203.4192853814493 408.16423646849944 0.0
    vertex 203.4192853814493 389.4142364684994 0.0
    vertex 212.7942853814493 398.78923646849944 19.999999999999996
  endloop
endfacet
facet normal 0.0 0.0 -1.0
  outer loop
    vertex 222.16928538144927 389.4142364684994 0.0
    vertex 212.7942853814493 398.7892364684994 0.0
    vertex 222.16928538144927 408.16423646849944 0.0
  endloop
endfacet
facet normal 0.7071067811865483 0.7071067811865467 -1.076270903809699e-15
  outer loop
    vertex 212.7942853814493 398.7892364684994 0.0
    vertex 212.7942853814493 398.78923646849944 19.999999999999996
    vertex 222.16928538144927 389.4142364684994 0.0
  endloop
endfacet
facet normal 0.7071067811865483 0.7071067811865467 -1.076270903809699e-15
  outer loop
    vertex 212.7942853814493 398.78923646849944 19.999999999999996
    vertex 212.7942853814493 398.7892364684994 0.0
    vertex 203.4192853814493 408.16423646849944 0.0
  endloop
endfacet
facet normal 0.0 0.0 -1.0
  outer loop
    vertex 212.7942853814493 398.7892364684994 0.0
    vertex 203.4192853814493 389.4142364684994 0.0
    vertex 203.4192853814493 408.16423646849944 0.0
  endloop
endfacet
facet normal 0.0 0.9054589359588686 0.4244338762307192
  outer loop
    vertex 212.7942853814493 398.78923646849944 19.999999999999996
    vertex 222.16928538144927 408.16423646849944 0.0
    vertex 203.4192853814493 408.16423646849944 0.0
  endloop
endfacet
facet normal 0.0 -0.905458935958868 0.4244338762307209
  outer loop
    vertex 306.54428538144936 398.78923646849944 19.999999999999996
    vertex 297.16928538144936 389.4142364684994 0.0
    vertex 315.91928538144936 389.4142364684994 0.0
  endloop
endfacet
facet normal -0.9054589359588686 -2.0177248562630428e-17 0.42443387623071915
  outer loop
    vertex 297.16928538144936 314.41423646849944 0.0
    vertex 297.16928538144936 295.66423646849944 0.0
    vertex 306.54428538144936 305.0392364684995 19.999999999999996
  endloop
endfacet
facet normal 0.0 0.0 -1.0
  outer loop
    vertex 222.16928538144927 314.41423646849944 0.0
    vertex 212.7942853814493 305.0392364684994 0.0
    vertex 203.4192853814493 314.41423646849944 0.0
  endloop
endfacet
facet normal 0.7071067811865483 0.7071067811865467 -1.076270903809699e-15
  outer loop
    vertex 212.7942853814493 305.0392364684994 0.0
    vertex 212.7942853814493 305.03923646849944 19.999999999999996
    vertex 222.16928538144927 295.6642364684994 0.0
  endloop
endfacet
facet normal 0.7071067811865483 0.7071067811865467 -1.076270903809699e-15
  outer loop
    vertex 212.7942853814493 305.03923646849944 19.999999999999996
    vertex 212.7942853814493 305.0392364684994 0.0
    vertex 203.4192853814493 314.41423646849944 0.0
  endloop
endfacet
facet normal 0.0 0.0 -1.0
  outer loop
    vertex 212.7942853814493 305.0392364684994 0.0
    vertex 203.4192853814493 295.6642364684994 0.0
    vertex 203.4192853814493 314.41423646849944 0.0
  endloop
endfacet
facet normal 0.0 0.0 -1.0
  outer loop
    vertex 222.16928538144927 295.6642364684994 0.0
    vertex 212.7942853814493 305.0392364684994 0.0
    vertex 222.16928538144927 314.41423646849944 0.0
  endloop
endfacet
facet normal -0.9054589359588686 -2.0177248562630428e-17 0.42443387623071915
  outer loop
    vertex 203.4192853814493 314.41423646849944 0.0
    vertex 203.4192853814493 295.6642364684994 0.0
    vertex 212.7942853814493 305.03923646849944 19.999999999999996
  endloop
endfacet
facet normal -0.7071067811865483 0.7071067811865467 -1.076270903809699e-15
  outer loop
    vertex 306.54428538144936 398.78923646849944 19.999999999999996
    vertex 306.54428538144936 398.7892364684994 0.0
    vertex 297.16928538144936 389.4142364684994 0.0
  endloop
endfacet
facet normal -0.7071067811865483 0.7071067811865467 -1.076270903809699e-15
  outer loop
    vertex 306.54428538144936 398.7892364684994 0.0
    vertex 306.54428538144936 398.78923646849944 19.999999999999996
    vertex 315.91928538144936 408.16423646849944 0.0
  endloop
endfacet
facet normal 0.0 0.0 -1.0
  outer loop
    vertex 315.91928538144936 408.16423646849944 0.0
    vertex 306.54428538144936 398.7892364684994 0.0
    vertex 297.16928538144936 408.16423646849944 0.0
  endloop
endfacet
facet normal 0.7071067811865483 0.7071067811865467 -1.076270903809699e-15
  outer loop
    vertex 306.54428538144936 398.7892364684994 0.0
    vertex 306.54428538144936 398.78923646849944 19.999999999999996
    vertex 315.91928538144936 389.4142364684994 0.0
  endloop
endfacet
facet normal 0.7071067811865483 0.7071067811865467 -1.076270903809699e-15
  outer loop
    vertex 306.54428538144936 398.78923646849944 19.999999999999996
    vertex 306.54428538144936 398.7892364684994 0.0
    vertex 297.16928538144936 408.16423646849944 0.0
  endloop
endfacet
facet normal 0.0 0.0 -1.0
  outer loop
    vertex 222.16928538144927 295.6642364684994 0.0
    vertex 203.4192853814493 295.6642364684994 0.0
    vertex 212.7942853814493 305.0392364684994 0.0
  endloop
endfacet
facet normal 0.0 -0.905458935958868 0.4244338762307209
  outer loop
    vertex 212.7942853814493 305.03923646849944 19.999999999999996
    vertex 203.4192853814493 295.6642364684994 0.0
    vertex 222.16928538144927 295.6642364684994 0.0
  endloop
endfacet
facet normal 0.7071067811865483 0.7071067811865467 -1.076270903809699e-15
  outer loop
    vertex 306.54428538144936 305.03923646849944 0.0
    vertex 306.54428538144936 305.0392364684995 19.999999999999996
    vertex 315.91928538144936 295.66423646849944 0.0
  endloop
endfacet
facet normal 0.7071067811865483 0.7071067811865467 -1.076270903809699e-15
  outer loop
    vertex 306.54428538144936 305.0392364684995 19.999999999999996
    vertex 306.54428538144936 305.03923646849944 0.0
    vertex 297.16928538144936 314.41423646849944 0.0
  endloop
endfacet
facet normal 0.9054589359588686 2.8824640803734397e-18 0.4244338762307192
  outer loop
    vertex 315.91928538144936 314.41423646849944 0.0
    vertex 306.54428538144936 305.0392364684995 19.999999999999996
    vertex 315.91928538144936 295.66423646849944 0.0
  endloop
endfacet
facet normal 0.0 0.0 -1.0
  outer loop
    vertex 315.91928538144936 295.66423646849944 0.0
    vertex 306.54428538144936 305.03923646849944 0.0
    vertex 315.91928538144936 314.41423646849944 0.0
  endloop
endfacet
facet normal 0.0 0.0 -1.0
  outer loop
    vertex 315.91928538144936 389.4142364684994 0.0
    vertex 297.16928538144936 389.4142364684994 0.0
    vertex 306.54428538144936 398.7892364684994 0.0
  endloop
endfacet
facet normal -0.7071067811865483 0.7071067811865467 -1.076270903809699e-15
  outer loop
    vertex 306.54428538144936 305.0392364684995 19.999999999999996
    vertex 306.54428538144936 305.03923646849944 0.0
    vertex 297.16928538144936 295.66423646849944 0.0
  endloop
endfacet
facet normal -0.7071067811865483 0.7071067811865467 -1.076270903809699e-15
  outer loop
    vertex 306.54428538144936 305.03923646849944 0.0
    vertex 306.54428538144936 305.0392364684995 19.999999999999996
    vertex 315.91928538144936 314.41423646849944 0.0
  endloop
endfacet
facet normal -0.9054589359588686 -2.0177248562630428e-17 0.42443387623071915
  outer loop
    vertex 297.16928538144936 408.16423646849944 0.0
    vertex 297.16928538144936 389.4142364684994 0.0
    vertex 306.54428538144936 398.78923646849944 19.999999999999996
  endloop
endfacet
facet normal -0.7071067811865483 0.7071067811865467 -1.076270903809699e-15
  outer loop
    vertex 212.7942853814493 305.03923646849944 19.999999999999996
    vertex 212.7942853814493 305.0392364684994 0.0
    vertex 203.4192853814493 295.6642364684994 0.0
  endloop
endfacet
facet normal -0.7071067811865483 0.7071067811865467 -1.076270903809699e-15
  outer loop
    vertex 212.7942853814493 305.0392364684994 0.0
    vertex 212.7942853814493 305.03923646849944 19.999999999999996
    vertex 222.16928538144927 314.41423646849944 0.0
  endloop
endfacet
facet normal 0.9054589359588686 2.8824640803734397e-18 0.4244338762307192
  outer loop
    vertex 315.91928538144936 408.16423646849944 0.0
    vertex 306.54428538144936 398.78923646849944 19.999999999999996
    vertex 315.91928538144936 389.4142364684994 0.0
  endloop
endfacet
facet normal 0.0 0.0 -1.0
  outer loop
    vertex 315.91928538144936 314.41423646849944 0.0
    vertex 306.54428538144936 305.03923646849944 0.0
    vertex 297.16928538144936 314.41423646849944 0.0
  endloop
endfacet
facet normal 0.0 -0.905458935958868 0.4244338762307209
  outer loop
    vertex 306.54428538144936 305.0392364684995 19.999999999999996
    vertex 297.16928538144936 295.66423646849944 0.0
    vertex 315.91928538144936 295.66423646849944 0.0
  endloop
endfacet
facet normal 0.0 0.9054589359588686 0.4244338762307192
  outer loop
    vertex 212.7942853814493 305.03923646849944 19.999999999999996
    vertex 222.16928538144927 314.41423646849944 0.0
    vertex 203.4192853814493 314.41423646849944 0.0
  endloop
endfacet
facet normal 0.0 0.0 -1.0
  outer loop
    vertex 315.91928538144936 295.66423646849944 0.0
    vertex 297.16928538144936 295.66423646849944 0.0
    vertex 306.54428538144936 305.03923646849944 0.0
  endloop
endfacet
facet normal 0.0 0.9054589359588686 0.4244338762307192
  outer loop
    vertex 306.54428538144936 398.78923646849944 19.999999999999996
    vertex 315.91928538144936 408.16423646849944 0.0
    vertex 297.16928538144936 408.16423646849944 0.0
  endloop
endfacet
facet normal 0.9054589359588686 2.8824640803734397e-18 0.4244338762307192
  outer loop
    vertex 222.16928538144927 314.41423646849944 0.0
    vertex 212.7942853814493 305.03923646849944 19.999999999999996
    vertex 222.16928538144927 295.6642364684994 0.0
  endloop
endfacet
facet normal 0.0 0.0 -1.0
  outer loop
    vertex 283.10678538144936 375.35173646849955 0.0
    vertex 236.23178538144938 328.47673646849944 0.0
    vertex 236.23178538144938 375.35173646849955 0.0
  endloop
endfacet
facet normal 0.0 0.0 -1.0
  outer loop
    vertex 236.23178538144938 328.47673646849944 0.0
    vertex 283.10678538144936 375.35173646849955 0.0
    vertex 283.10678538144936 328.47673646849944 0.0
  endloop
endfacet
facet normal 0.0 0.0 -1.0
  outer loop
    vertex 315.91928538144936 389.4142364684994 0.0
    vertex 306.54428538144936 398.7892364684994 0.0
    vertex 315.91928538144936 408.16423646849944 0.0
  endloop
endfacet
facet normal 0.0 0.0 -1.0
  outer loop
    vertex 306.54428538144936 305.03923646849944 0.0
    vertex 297.16928538144936 295.66423646849944 0.0
    vertex 297.16928538144936 314.41423646849944 0.0
  endloop
endfacet
facet normal -0.9054589359588685 -2.0177248562630422e-17 0.42443387623071904
  outer loop
    vertex 236.23178538144938 375.35173646849955 0.0
    vertex 236.23178538144938 328.47673646849944 0.0
    vertex 259.66928538144936 351.9142364684995 49.99999999999999
  endloop
endfacet
facet normal 0.0 0.0 -1.0
  outer loop
    vertex 306.54428538144936 398.7892364684994 0.0
    vertex 297.16928538144936 389.4142364684994 0.0
    vertex 297.16928538144936 408.16423646849944 0.0
  endloop
endfacet
facet normal 0.0 0.9054589359588686 0.4244338762307192
  outer loop
    vertex 306.54428538144936 305.0392364684995 19.999999999999996
    vertex 315.91928538144936 314.41423646849944 0.0
    vertex 297.16928538144936 314.41423646849944 0.0
  endloop
endfacet
facet normal 0.0 0.9054589359588687 0.4244338762307192
  outer loop
    vertex 259.66928538144936 351.9142364684995 49.99999999999999
    vertex 283.10678538144936 375.35173646849955 0.0
    vertex 236.23178538144938 375.35173646849955 0.0
  endloop
endfacet
facet normal 0.9054589359588687 2.882464080373439e-18 0.4244338762307192
  outer loop
    vertex 283.10678538144936 375.35173646849955 0.0
    vertex 259.66928538144936 351.9142364684995 49.99999999999999
    vertex 283.10678538144936 328.47673646849944 0.0
  endloop
endfacet
endsolid pyramids
