solid pyramids
facet normal -0.9054589359588686 -2.0177248562630428e-17 0.42443387623071915
  outer loop
    vertex 203.4192853814493 314.41423646849944 0.0
    vertex 203.4192853814493 295.6642364684994 0.0
    vertex 212.7942853814493 305.03923646849944 19.999999999999996
  endloop
endfacet
facet normal 0.0 0.0 -1.0
  outer loop
    vertex 222.16928538144927 314.41423646849944 0.0
    vertex 203.4192853814493 295.6642364684994 0.0
    vertex 203.4192853814493 314.41423646849944 0.0
  endloop
endfacet
facet normal 0.0 0.0 -1.0
  outer loop
    vertex 203.4192853814493 295.6642364684994 0.0
    vertex 222.16928538144927 314.41423646849944 0.0
    vertex 222.16928538144927 295.6642364684994 0.0
  endloop
endfacet
facet normal 0.0 -0.905458935958868 0.4244338762307209
  outer loop
    vertex 212.7942853814493 305.03923646849944 19.999999999999996
    vertex 203.4192853814493 295.6642364684994 0.0
    vertex 222.16928538144927 295.6642364684994 0.0
  endloop
endfacet
facet normal 0.0 0.9054589359588686 0.4244338762307192
  outer loop
    vertex 212.7942853814493 305.03923646849944 19.999999999999996
    vertex 222.16928538144927 314.41423646849944 0.0
    vertex 203.4192853814493 314.41423646849944 0.0
  endloop
endfacet
facet normal 0.9054589359588686 2.8824640803734397e-18 0.4244338762307192
  outer loop
    vertex 222.16928538144927 314.41423646849944 0.0
    vertex 212.7942853814493 305.03923646849944 19.999999999999996
    vertex 222.16928538144927 295.6642364684994 0.0
  endloop
endfacet
endsolid pyramids
